<svg width="142" height="160" viewBox="0 0 142 160" fill="none" xmlns="http://www.w3.org/2000/svg">
<path d="M68.0469 0.213835C65.8594 0.643522 62.6953 2.40134 61.4844 3.80759C60.9375 4.47165 60.0391 5.8779 59.4531 6.97165L58.3984 8.96384L58.2812 33.0654C58.2031 51.7373 58.0859 57.206 57.6953 57.206C56.7188 57.206 52.8906 55.1357 51.6406 53.9638C48.9062 51.3467 48.8281 51.0342 48.8281 39.1592C48.8281 33.2998 48.6328 27.8701 48.4375 27.1279C48.2422 26.3466 47.4609 25.1357 46.6797 24.3935C45.5859 23.2998 44.9609 23.0654 43.2031 22.9091C40.5469 22.7138 38.6328 23.7295 37.5 25.9951C36.8359 27.2841 36.7188 28.2998 36.7188 33.1826C36.7188 37.4404 36.6016 38.8467 36.25 38.8467C35.9766 38.8467 35.0391 38.417 34.1797 37.8701C32.2656 36.6982 31.25 36.6201 31.25 37.6357C31.25 38.456 32.4219 39.4326 35.0781 40.7607L36.7188 41.581V46.0342C36.7188 51.3076 37.5 54.3154 39.7656 57.831C42.8906 62.6748 49.0234 66.8935 55.3125 68.4951L58.0078 69.1982L58.125 72.9873C58.1641 75.0576 58.125 76.7373 57.9688 76.7373C57.8125 76.7373 56.4453 75.5654 54.9219 74.081C42.7734 62.5576 28.3984 55.2529 11.7188 52.1279C4.0625 50.7217 1.21094 50.4092 0.585938 50.956C0.078125 51.3857 0 55.917 0 86.542V121.659L0.898438 122.206C1.36719 122.479 3.24219 122.87 5.07812 123.026C18.8281 124.12 31.6406 128.769 44.1406 137.089C51.4844 141.972 55 144.94 62.5391 152.597C69.9609 160.097 70.5078 160.409 72.3828 158.651C72.8906 158.183 74.6875 156.229 76.4062 154.315C81.5234 148.534 90.8594 140.683 98.0859 136.034C109.609 128.612 120.859 124.589 133.828 123.222C139.297 122.636 139.688 122.558 140.391 121.815C140.938 121.269 141.016 117.519 141.016 86.3076V51.3857L140.195 50.956C139.141 50.3701 129.883 51.6982 123.633 53.2998C109.492 56.9326 95.8594 64.3545 86.0938 73.6904C84.3359 75.3701 82.8125 76.7373 82.6562 76.7373C82.5391 76.7373 82.4219 73.7685 82.4219 70.1748V63.5732L84.6875 63.0654C93.2031 61.1904 100.312 55.4092 102.734 48.417C103.164 47.167 103.516 45.7607 103.516 45.2529C103.516 44.5107 103.828 44.3154 105.664 43.8857C108.203 43.3388 109.219 42.6748 108.789 41.9717C108.594 41.6201 107.812 41.542 106.211 41.6982L103.906 41.8935V36.1513V30.4092L106.445 28.7685C107.852 27.8701 108.984 26.8935 108.984 26.581C108.984 25.5654 107.734 25.5263 106.016 26.542C105.117 27.0888 104.258 27.5185 104.18 27.5185C104.062 27.5185 103.906 26.3076 103.828 24.7841C103.594 20.5654 101.523 18.3388 97.8516 18.3388C95.3125 18.3388 93.9453 19.2373 92.6953 21.6591C91.8359 23.3388 91.7969 23.7685 91.7969 33.6513C91.7969 44.9013 91.7188 45.3701 89.4922 47.9482C88.3594 49.2373 85.5859 50.8388 83.3203 51.5029L82.4609 51.7763L82.3438 30.5654L82.2266 9.35446L81.1328 7.16696C78.6328 2.08884 73.2031 -0.840853 68.0469 0.213835ZM14.6875 59.0029C20.5859 60.1357 25.0391 61.6982 31.0547 64.6279C43.2031 70.5263 52.1094 78.1826 63.8672 92.9092L67.5781 97.5967V123.144V148.729L64.375 145.644C55.1562 136.815 45.5859 130.175 34.6875 124.979C27.1484 121.425 17.0312 118.378 10.1562 117.558C8.98438 117.44 7.53906 117.245 6.91406 117.128L5.85938 116.894V87.5185C5.85938 71.3467 5.97656 58.0263 6.09375 57.9092C6.40625 57.5967 9.53125 57.9873 14.6875 59.0029ZM134.766 87.2451V116.894L131.367 117.362C112.773 119.901 92.8906 129.901 78.2812 144.003C75.8984 146.347 73.8281 148.222 73.6719 148.222C73.5547 148.222 73.4375 136.815 73.4375 122.87V97.5185L74.8828 95.6045C81.1328 87.3232 89.4922 78.2998 94.9219 74.0029C101.133 69.081 108.516 64.7451 115.195 62.0888C120.547 59.9795 129.414 57.831 133.711 57.6357L134.766 57.5967V87.2451Z" fill="#009C3B"/>
</svg>
